<?xml version="1.0" encoding="UTF-8"?><svg id="Calque_1" xmlns="http://www.w3.org/2000/svg" xmlns:xlink="http://www.w3.org/1999/xlink" viewBox="0 0 200 200"><defs><linearGradient id="Dégradé_sans_nom_19" x1="112.96" y1="55.52" x2="141.32" y2="6.89" gradientUnits="userSpaceOnUse"><stop offset="0" stop-color="#c5a059"/><stop offset=".04" stop-color="#b09252"/><stop offset=".13" stop-color="#897845"/><stop offset=".23" stop-color="#67623a"/><stop offset=".33" stop-color="#4b4f31"/><stop offset=".44" stop-color="#35412a"/><stop offset=".56" stop-color="#263725"/><stop offset=".7" stop-color="#1d3122"/><stop offset=".9" stop-color="#1b3022"/></linearGradient><linearGradient id="Dégradé_sans_nom_27" x1="83.8" y1="86.75" x2="61.48" y2="10.15" gradientUnits="userSpaceOnUse"><stop offset="0" stop-color="#c5a059"/><stop offset=".11" stop-color="#be9b56"/><stop offset=".26" stop-color="#ab8f50"/><stop offset=".43" stop-color="#8c7b46"/><stop offset=".63" stop-color="#625e39"/><stop offset=".84" stop-color="#2c3b27"/><stop offset=".9" stop-color="#1b3022"/></linearGradient><linearGradient id="Dégradé_sans_nom_19-2" x1="101.39" y1="113.91" x2="147.96" y2="98.41" xlink:href="#Dégradé_sans_nom_19"/><linearGradient id="Dégradé_sans_nom_24" x1="97.64" y1="102.39" x2="187.51" y2="38.38" gradientUnits="userSpaceOnUse"><stop offset=".11" stop-color="#c5a059"/><stop offset=".22" stop-color="#c09c57"/><stop offset=".34" stop-color="#b19352"/><stop offset=".47" stop-color="#9a834b"/><stop offset=".61" stop-color="#796e40"/><stop offset=".76" stop-color="#4e5232"/><stop offset=".9" stop-color="#1b3022"/><stop offset=".9" stop-color="#1b3022"/></linearGradient></defs><path d="M69.91,128.78c.21.05.41-.08.55-.02-.15-.29-.49-.32-.79-.34-.05.24.08.33.24.37Z" style="fill:#3c2f2f;"/><path d="M83.71,127.29c-.22.03-.45.21-.63.41.39.01.8,0,1.19.05.1-.36-.22-.51-.56-.47Z" style="fill:#3c2f2f;"/><path d="M70.06,103.61c.17-.03.27-.29.43-.33-.19.03-.35.15-.43.33Z" style="fill:#3c2f2f;"/><path d="M110.39,59.68c1.42,3.02,2.19,2.52,2.54-.35.74-4.76,2.6-9.47,4.32-13.95.91-2.24,1.99-4.47,3.23-6.46,1.87-2.95,1.18-.75.45.92-1.85,4.28-3.28,8.21-4.02,12.69-.42,2.35-1.16,6.69,2.73,4.84,4.24-1.81,7.22-4.22,9.69-8.19,2.31-3.58,2.95-8.1,3.23-12.23.06-2.92-.16-5.98-.05-8.86v-.09c.03-.7.07-1.39.16-2.08.1-1.67,1.04-3.31.22-4.35-.85-.59-2.27.05-3.25.33-3.6,1.1-6.81,3.44-9.95,5.56-2.43,1.82-4.52,4.03-6.44,6.41-4.61,5.38-5.69,12.45-4.56,19.29.3,2.25.77,4.46,1.68,6.52Z" style="fill:url(#Dégradé_sans_nom_19);"/><path d="M64.03,48.11c1.06,2.57,1.23,5.29,1.61,8.29.76,7.19,2.45,14.61,7.89,19.75,3.1,2.91,6.83,4.61,10.48,6.69,2.77,1.54,5.19,2.56,5-1.48-.08-3.71-.57-7.24-1.79-10.71-1.35-3.85-3.51-7.28-5.78-10.68-.93-1.34-1.88-2.58-2.91-3.83-1.99-2.38-4.46-5.23-.81-2.07,6.88,6.09,12.56,13.82,13.86,23,.86,5.98.81,11.88-3.02,16.71-1.8,2.32-4.17,4.24-6.42,6.04-2.06,1.74-4.01,3.59-5.95,5.48-2.61,2.8-5.69,7.12-4.78,10.87.49,1.83,1.73,3.27,3.16,4.51,2.77,2.43,7.68,4.65,10.98,5.27.32,0,.15-.13-.28-.38-2.62-1.34-5.72-2.51-7.7-4.83-1.98-2.21-2.58-5.47-1.61-8.26.67-2.05,1.98-3.72,3.41-5.19,4.38-4.63,11.08-8.81,13.99-14.85.82-2.36.49-5.2,1.28-7.61.99-3.31,3.47-6.21,4.09-9.65.78-4.55.15-9.39-1.41-13.73-3.06-7.69-9.49-13.69-17.2-16.62-2.17-.89-4.33-1.67-6.63-2-2.41-.27-4.91-.68-7.25-1.1h-.09c-1.53-.14-6.22-.84-4.49,1.96.84,1.41,1.77,2.89,2.37,4.44Z" style="fill:url(#Dégradé_sans_nom_27);"/><path d="M99.31,117.75c4.18-3.7,9.59-5.68,15.02-6.59,4.62-.61,9.01.16,13.4-.54l.11-.02c6.31-1.3,12.1-4.75,16.38-9.84.44-.54.93-1.23,1.21-1.78.25-.52.29-.87.09-.99-1.23-.18-3.3,1.81-4.55,2.51-3.94,2.76-8.69,3.81-13.39,3.66-4.62.17-9.39-.05-14.01.59-1.9.28-3.8.82-5.61,1.36-2.77.59-5.18,2.18-6.95,4.42-.99,1.18-1.98,2.38-2.74,3.74-1.42,2.51-3.45,7.91,1.04,3.49Z" style="fill:url(#Dégradé_sans_nom_19-2);"/><path d="M168.69,53.04c-.02-.34-.17-.66-.55-.57h-.05c-1.21.5-2.36,1.44-3.58,2.02-2.43,1.16-4.97,2.18-7.59,2.67-2.14.37-4.36.37-6.56.33-5.59-.13-11.05-.33-16.65.45-12,1.72-23.44,8.67-28.9,19.74-1.12,2.37-1.79,4.96-2.4,7.53-.29,1.32-.39,2.57-.06,3.12,1.03,1.7,5.72-2.73,7.02-3.42,4.92-3.76,10.89-6.1,16.72-8.01,4.43-1.49,15.55-5.24,21.74-7.32,1.17-.39,1.66-.51,1.27-.21-3.54,2.31-7.87,4.15-11.85,5.69-13.3,4.64-26.01,11.05-36.32,20.71-2.05,2.1-4.86,4.78-6.75,7.2-2.28,3.33-4.57,7.02-5.26,11.14-.56,3.79-1.01,9.36,1.43,12.29.34.28.66.13.79-.28.3-.75.1-2.5.1-4.02-.02-2.15.24-4.21.99-6.51,2.01-6.16,6.47-12.47,11.97-14.93,4.96-2.71,10.85-1.58,16.26-1.81,6.75.03,13.53-1.15,19.8-3.77,8.5-3.41,15.94-9.78,20.68-17.62,1.65-2.65,2.78-5.86,4.14-9.15.88-2.29,1.93-4.41,2.4-6.76.42-2.41,1.3-6.85,1.22-8.5ZM150.57,68.86s-.04.08-.05.12c0-.04.02-.08.05-.12ZM151.12,69.11s-.03,0-.04.01c.01,0,.03,0,.04-.01.85-.3,1.62-.82,2.34-1.38-.72.56-1.49,1.09-2.34,1.38ZM154.72,66.71c-.16.06-.34.12-.51.18-.48.16-.98.32-1.47.51.49-.19.99-.35,1.47-.51.17-.06.35-.12.51-.18h0Z" style="fill:url(#Dégradé_sans_nom_24);"/><path d="M142.43,122.35c2.19,0,4.41.72,6.65,2.14,2.24,1.48,3.81,3.31,4.72,5.51.9,2.19,1.52,5.2,1.86,9.01h1.64c0-8.53.09-14.49.29-17.87h-1.64c-.29,2.86-.91,4.29-1.86,4.29-.43,0-.88-.21-1.36-.64-1.91-1.48-3.86-2.62-5.86-3.43-2-.81-4.43-1.22-7.29-1.22-5.24,0-9.91,1.12-14.01,3.36-2.32,1.27-4.36,2.83-6.1,4.68-3.07,3.27-7.08,5.51-11.51,6.18-.09.01-.16.02-.21.03-13.97,1.68-22.25.42-35.55-4.42-1.78-.73-4.11-1.56-5.19-2.83-.93-1.26,2.19-1.62,1.97-2.68-.51-1.13-1.51-1.55-2.81-2.63-1.89-1.41-3.95-3.15-5.11-5.26-4.29-7.58,2.79-14.29,9.05-17.87,1.02-.74,6.11-3.35,5.86-4.02-.11-.08-.27-.09-.45-.08-.87.07-2.56.49-3.66.89-6.99,2.44-14.7,5.82-18.36,12.46-1.02,1.91-1.72,4.29-3.04,5.93-.97,1.24-2.43,1.91-3.95,2.22-1.9.42-4.31.5-6.39,1.34-3.53,1.37-6.39,4.3-7.76,7.83-2.38,6.02-.54,13.11,3.51,17.98,3.5,4.25,8.44,7.15,13.39,9.46,4.89,2.26,9.94,4.04,14.25,7.25,3.53,2.58,6.69,5.99,10.19,8.67,7.92,6.1,18.27,8.37,28.26,8.08.37-.01.76-.03,1.17-.06.02,0,.04.01.06.01.04,0,.07,0,.1-.02,4.75-.33,12.07-1.69,17.68-3.68,3.7-1.31,7.67-1.6,11.53-.84,2.19.43,4.52.65,6.99.65,2.76,0,5.12-.39,7.08-1.18,1.95-.79,4-1.94,6.15-3.47.62-.38,1.12-.57,1.5-.57.48,0,.85.32,1.11.97.26.64.46,1.73.61,3.25h1.64c-.19-3.48-.29-9.68-.29-18.59h-1.64c-.33,4.29-.95,7.6-1.86,9.94-.91,2.34-2.48,4.19-4.72,5.58-2.24,1.43-4.46,2.14-6.65,2.14-4.96,0-8.44-2.38-10.44-7.15-2-4.77-3-10.46-3-17.09s1-12.32,3-17.09c2-4.77,5.48-7.15,10.44-7.15ZM51.97,146.37l-.07-.03c-3.21-1.55-6.38-3.38-9-5.82-3.28-3.03-5.78-7.74-4.07-12.08,1.13-3.01,4.44-4.88,7.64-4.3,6.42,1.13,7.23,8.6,8.67,13.82,1.29,4.97,5.32,12.41-3.17,8.42ZM105,171.8h-.07c-.38-.07-.16-.64.17-.43.18.11.11.41-.1.43Z" style="fill:#3c2f2f;"/></svg>