<svg viewBox="136.53333333333333 139.7504 755.220611916264 448.25600000000003" xmlns:xlink="http://www.w3.org/1999/xlink" xmlns="http://www.w3.org/2000/svg" id="Calque_1" style="max-height: 500px" width="755.220611916264" height="448.25600000000003"><defs><linearGradient gradientUnits="userSpaceOnUse" y2="109.03" x2="419.41" y1="232.19" x1="347.58" id="Dégradé_sans_nom_19"><stop stop-color="#c5a059" offset="0"/><stop stop-color="#b09252" offset=".04"/><stop stop-color="#897845" offset=".13"/><stop stop-color="#67623a" offset=".23"/><stop stop-color="#4b4f31" offset=".33"/><stop stop-color="#35412a" offset=".44"/><stop stop-color="#263725" offset=".56"/><stop stop-color="#1d3122" offset=".7"/><stop stop-color="#1b3022" offset=".9"/></linearGradient><linearGradient gradientUnits="userSpaceOnUse" y2="117.28" x2="217.18" y1="311.3" x1="273.72" id="Dégradé_sans_nom_27"><stop stop-color="#c5a059" offset="0"/><stop stop-color="#be9b56" offset=".11"/><stop stop-color="#ab8f50" offset=".26"/><stop stop-color="#8c7b46" offset=".43"/><stop stop-color="#625e39" offset=".63"/><stop stop-color="#2c3b27" offset=".84"/><stop stop-color="#1b3022" offset=".9"/></linearGradient><linearGradient xlink:href="#Dégradé_sans_nom_19" y2="340.84" x2="436.22" y1="380.09" x1="318.28" id="Dégradé_sans_nom_19-2"/><linearGradient gradientUnits="userSpaceOnUse" y2="188.78" x2="536.39" y1="350.9" x1="308.78" id="Dégradé_sans_nom_24"><stop stop-color="#c5a059" offset=".11"/><stop stop-color="#c09c57" offset=".22"/><stop stop-color="#b19352" offset=".34"/><stop stop-color="#9a834b" offset=".47"/><stop stop-color="#796e40" offset=".61"/><stop stop-color="#4e5232" offset=".76"/><stop stop-color="#1b3022" offset=".9"/><stop stop-color="#1b3022" offset=".9"/></linearGradient></defs><path style="fill:#3c2f2f;" d="M238.54,417.75c.53.12,1.04-.2,1.38-.06-.38-.74-1.25-.81-2-.87-.12.6.19.84.62.93Z"/><path style="fill:#3c2f2f;" d="M273.48,413.98c-.56.07-1.15.54-1.59,1.05.99.03,2.02-.02,3,.14.26-.92-.55-1.29-1.41-1.18Z"/><path style="fill:#3c2f2f;" d="M238.92,354.01c.43-.09.69-.72,1.09-.83-.48.08-.89.38-1.09.83Z"/><path style="fill:url(#Dégradé_sans_nom_19);" d="M341.05,242.73c3.6,7.65,5.53,6.38,6.42-.87,1.87-12.06,6.59-24,10.95-35.34,2.31-5.67,5.03-11.32,8.18-16.36,4.73-7.47,2.98-1.91,1.13,2.34-4.68,10.83-8.3,20.79-10.17,32.15-1.06,5.96-2.93,16.94,6.92,12.26,10.73-4.58,18.28-10.7,24.54-20.73,5.85-9.06,7.47-20.53,8.19-30.98.14-7.4-.4-15.14-.12-22.45v-.23c.07-1.77.19-3.52.41-5.28.25-4.23,2.63-8.39.56-11.02-2.17-1.5-5.74.12-8.24.84-9.13,2.78-17.25,8.72-25.19,14.07-6.16,4.61-11.46,10.22-16.31,16.22-11.67,13.64-14.42,31.54-11.54,48.86.77,5.71,1.95,11.3,4.25,16.52Z"/><path style="fill:url(#Dégradé_sans_nom_27);" d="M223.66,213.43c2.68,6.5,3.11,13.39,4.07,21,1.94,18.21,6.21,37.02,19.97,50.02,7.86,7.36,17.31,11.69,26.54,16.93,7.01,3.91,13.13,6.47,12.67-3.75-.21-9.39-1.44-18.34-4.53-27.14-3.43-9.74-8.89-18.44-14.63-27.06-2.35-3.39-4.77-6.53-7.38-9.7-5.04-6.04-11.31-13.25-2.05-5.25,17.41,15.42,31.8,35.01,35.11,58.25,2.18,15.14,2.05,30.1-7.64,42.33-4.56,5.87-10.57,10.74-16.26,15.31-5.22,4.4-10.16,9.09-15.06,13.88-6.62,7.09-14.42,18.04-12.12,27.53,1.23,4.62,4.39,8.29,8.01,11.42,7.02,6.14,19.44,11.77,27.8,13.35.81,0,.38-.34-.71-.97-6.64-3.4-14.49-6.36-19.51-12.23-5.03-5.6-6.52-13.84-4.09-20.93,1.7-5.19,5.02-9.42,8.63-13.14,11.1-11.73,28.06-22.31,35.44-37.62,2.07-5.97,1.24-13.16,3.25-19.26,2.52-8.39,8.79-15.74,10.36-24.44,1.97-11.52.39-23.78-3.58-34.78-7.74-19.47-24.04-34.66-43.56-42.09-5.49-2.25-10.98-4.23-16.8-5.08-6.12-.69-12.43-1.73-18.35-2.79l-.23-.03c-3.87-.33-15.76-2.09-11.37,5,2.13,3.56,4.47,7.32,6.01,11.24Z"/><path style="fill:url(#Dégradé_sans_nom_19-2);" d="M313.01,389.82c10.59-9.37,24.3-14.38,38.03-16.7,11.7-1.55,22.81.42,33.95-1.37l.27-.05c15.99-3.29,30.64-12.03,41.48-24.93,1.12-1.36,2.37-3.11,3.06-4.5.64-1.31.72-2.21.23-2.51-3.12-.47-8.36,4.59-11.53,6.36-9.98,7-22.02,9.64-33.91,9.26-11.69.44-23.79-.14-35.48,1.49-4.8.7-9.62,2.08-14.2,3.45-7.03,1.49-13.12,5.52-17.6,11.2-2.51,2.98-5.02,6.04-6.93,9.47-3.59,6.35-8.75,20.04,2.63,8.84Z"/><path style="fill:url(#Dégradé_sans_nom_24);" d="M488.72,225.91c-.06-.86-.43-1.68-1.4-1.44l-.11.03c-3.07,1.24-5.98,3.62-9.07,5.09-6.14,2.94-12.59,5.53-19.23,6.75-5.41.94-11.04.95-16.63.84-14.16-.32-27.99-.84-42.16,1.15-30.4,4.35-59.36,21.95-73.2,50-2.84,6.02-4.54,12.57-6.08,19.07-.73,3.35-.99,6.5-.15,7.91,2.6,4.3,14.49-6.92,17.79-8.67,12.46-9.53,27.58-15.44,42.34-20.28,11.22-3.78,39.4-13.27,55.06-18.54,2.95-1,4.2-1.3,3.23-.53-8.97,5.86-19.93,10.52-30.02,14.4-33.68,11.74-65.88,27.99-91.99,52.44-5.2,5.33-12.32,12.11-17.11,18.24-5.78,8.44-11.57,17.79-13.33,28.22-1.41,9.59-2.56,23.72,3.63,31.13.86.71,1.68.32,2-.7.77-1.89.24-6.34.27-10.19-.05-5.46.62-10.66,2.52-16.5,5.08-15.61,16.38-31.59,30.31-37.82,12.56-6.85,27.49-4,41.17-4.58,17.11.08,34.27-2.91,50.14-9.56,21.54-8.64,40.36-24.77,52.38-44.63,4.17-6.71,7.05-14.84,10.49-23.19,2.23-5.79,4.89-11.18,6.08-17.13,1.07-6.12,3.29-17.34,3.09-21.52ZM442.84,265.98c-.05.1-.1.21-.11.31.02-.1.06-.21.11-.31ZM444.21,266.63s-.07.02-.1.03c.03,0,.07-.02.1-.03,2.16-.76,4.1-2.08,5.93-3.51-1.83,1.43-3.78,2.75-5.93,3.51ZM453.34,260.55c-.42.15-.85.3-1.29.45-1.21.41-2.49.81-3.73,1.28,1.24-.47,2.52-.88,3.73-1.28.44-.15.88-.3,1.29-.45h0Z"/><path style="fill:#3c2f2f;" d="M422.22,401.46c5.55,0,11.16,1.81,16.84,5.43,5.67,3.74,9.66,8.39,11.95,13.94,2.29,5.55,3.86,13.16,4.71,22.82h4.17c0-21.61.24-36.7.72-45.27h-4.17c-.72,7.24-2.29,10.86-4.71,10.86-1.09,0-2.23-.54-3.44-1.63-4.83-3.74-9.78-6.64-14.85-8.69-5.07-2.05-11.23-3.08-18.47-3.08-13.28,0-25.11,2.84-35.49,8.51-5.88,3.22-11.03,7.17-15.44,11.86-7.78,8.27-17.93,13.95-29.16,15.64-.22.03-.4.06-.53.07-35.38,4.25-56.35,1.07-90.03-11.2-4.5-1.85-10.4-3.96-13.15-7.17-2.35-3.18,5.54-4.11,4.99-6.8-1.3-2.86-3.84-3.93-7.13-6.67-4.78-3.56-10.01-7.99-12.95-13.32-10.87-19.19,7.08-36.2,22.93-45.27,2.59-1.88,15.48-8.49,14.85-10.18-.27-.19-.69-.24-1.13-.2-2.21.19-6.47,1.24-9.28,2.25-17.71,6.19-37.23,14.75-46.49,31.55-2.59,4.83-4.34,10.88-7.7,15.02-2.46,3.15-6.15,4.84-10,5.63-4.8,1.07-10.91,1.27-16.18,3.4-8.95,3.47-16.19,10.89-19.66,19.83-6.04,15.24-1.38,33.21,8.88,45.55,8.87,10.76,21.39,18.1,33.92,23.96,12.4,5.73,25.18,10.23,36.09,18.35,8.93,6.54,16.95,15.18,25.82,21.97,20.05,15.45,46.28,21.19,71.58,20.46.93-.03,1.92-.08,2.96-.15.05.01.1.03.16.03.09,0,.18-.02.26-.06,12.02-.84,30.56-4.28,44.78-9.32,9.38-3.32,19.43-4.05,29.19-2.13,5.55,1.09,11.45,1.64,17.71,1.64,7,0,12.98-1,17.93-2.99,4.95-1.99,10.14-4.92,15.57-8.78,1.57-.96,2.83-1.45,3.8-1.45,1.2,0,2.14.81,2.81,2.44.66,1.63,1.18,4.38,1.54,8.24h4.17c-.48-8.81-.72-24.5-.72-47.08h-4.17c-.85,10.87-2.42,19.26-4.71,25.17-2.29,5.92-6.28,10.62-11.95,14.12-5.68,3.62-11.29,5.43-16.84,5.43-12.56,0-21.37-6.04-26.44-18.11-5.07-12.07-7.6-26.5-7.6-43.28s2.54-31.2,7.6-43.28c5.07-12.07,13.88-18.11,26.44-18.11ZM193.09,462.31l-.19-.09c-8.12-3.93-16.15-8.56-22.8-14.75-8.29-7.68-14.65-19.61-10.31-30.59,2.85-7.62,11.24-12.37,19.35-10.9,16.27,2.87,18.31,21.78,21.97,34.99,3.27,12.6,13.48,31.43-8.03,21.33ZM327.41,526.7h-.18c-.97-.19-.4-1.63.44-1.1.44.28.27,1.05-.26,1.1Z"/><path style="fill:#3c2f2f;" d="M475.86,523.12c-3.13-3.33-4.7-7.49-4.7-12.51,0-4.34,1.13-7.93,3.4-10.77,2.26-2.84,4.94-5.04,8.03-6.58,3.08-1.54,7.09-3.13,12-4.77,5.21-1.74,9.01-3.33,11.42-4.77,2.41-1.45,3.62-3.47,3.62-6.07v-12.87c0-3.08-.77-5.83-2.31-8.24-1.54-2.41-4.19-3.62-7.95-3.62-2.99,0-5.69.82-8.1,2.46,3.28,1.16,5.71,2.87,7.3,5.13,1.59,2.27,2.39,4.8,2.39,7.59,0,3.76-1.33,6.77-3.98,9.04-2.65,2.27-5.86,3.4-9.62,3.4s-6.72-1.18-8.89-3.54c-2.17-2.36-3.25-5.37-3.25-9.04,0-2.89.72-5.4,2.17-7.52,1.45-2.12,3.71-4.05,6.8-5.78,5.4-3.08,13.11-4.63,23.14-4.63,5.3,0,9.88.51,13.74,1.52,3.85,1.01,7.13,2.92,9.83,5.71,1.93,2.02,3.2,4.56,3.83,7.59.63,3.04.94,7.25.94,12.65v38.75c0,2.41.17,4.05.51,4.92.34.87.94,1.3,1.81,1.3.67,0,1.4-.22,2.17-.65.77-.43,1.49-.94,2.17-1.52l1.45,2.46c-4.15,3.57-10.08,5.35-17.79,5.35-5.78,0-9.83-.99-12.15-2.96s-3.57-4.65-3.76-8.03c-4.53,7.33-11.28,10.99-20.24,10.99-6.17,0-10.82-1.66-13.95-4.99ZM509.63,514.08v-30.51c-.87,1.45-2.46,3.33-4.77,5.64-2.6,2.51-4.58,4.94-5.93,7.3-1.35,2.36-2.02,5.57-2.02,9.62,0,6.94,2.46,10.41,7.38,10.41,2.02,0,3.81-.82,5.35-2.46Z"/><path style="fill:#3c2f2f;" d="M611.66,406.82c1.72,1.29,3.15,3.12,4.28,5.49,1.13,2.37,1.7,5,1.7,7.91,0,3.45-1.27,6.49-3.79,9.12-2.53,2.64-5.73,3.96-9.61,3.96-4.52,0-8.07-1.18-10.66-3.55-2.58-2.37-3.88-5.65-3.88-9.85,0-3.23.94-6.13,2.83-8.72,1.88-2.58,4.65-4.46,8.31-5.65-.75-.97-2.21-1.45-4.36-1.45-3.34,0-5.87,1.02-7.59,3.07-1.08,1.29-1.86,3.04-2.34,5.25-.48,2.21-.73,5.36-.73,9.44v21.63h17.28v3.23h-17.28v63.77c0,4.95,1.16,8.39,3.47,10.33,2.31,1.94,5.78,2.91,10.41,2.91v3.39l-4.68-.16c-12.92-.32-21.26-.48-25.03-.48-3.23,0-10.65.22-22.28.65v-3.39c3.34,0,5.68-.83,7.02-2.5,1.34-1.67,2.02-4.71,2.02-9.12v-65.39h-9.69v-3.23h9.69c0-9.36.83-16.55,2.5-21.55,1.67-5,4.65-9.34,8.96-13,2.69-2.26,6.19-4.17,10.49-5.73,4.3-1.56,8.82-2.34,13.56-2.34,7.75,0,14.21,1.99,19.37,5.97Z"/><path style="fill:#3c2f2f;" d="M823.85,391.64c-1.28,15.3-26.01,27.03-43.86,27.03-5.1,0-10.97-.77-16.83-2.55-23.97,32.13-46.92,78.54-58.4,108.12-3.32,8.16-5.36,17.85-5.36,23.97s2.04,8.92,7.14,5.1c11.99-9.18,42.33-45.65,54.57-48.71,6.38-1.53,8.93,2.55,8.93,9.94,0,8.16-4.08,18.36-5.61,27.29-1.28,7.4,1.28,9.18,4.84,9.18,8.42,0,34.43-22.44,42.33-34.17,2.29-3.06,4.33.76,1.53,3.83-15.81,18.36-35.45,38-48.71,38-5.87,0-12.5-2.55-12.5-12.75,0-6.89,2.29-13.77,5.61-25.25,2.8-9.44-3.32-6.89-9.95-1.02-26.27,22.95-35.45,46.16-49.47,46.16-9.69,0-14.79-8.42-12.75-21.68,2.81-19.38,33.41-87.98,68.6-130.82-19.89-6.88-43.35-19.38-68.6-31.11.51,3.31.77,7.39.77,11.99,0,7.14-.77,15.04-2.55,21.93-15.3,56.1-48.71,140.76-66.05,160.14-6.12,6.88-14.03-.25-12.5-7.91,2.29.51,4.33.76,6.38.51,22.95-44.63,42.08-99.45,53.55-166.52,1.79-10.46,6.38-20.15,9.95-24.99-29.07-12.75-60.18-23.71-91.29-23.71-33.66,0-57.63,20.15-57.63,40.8,0,13.77,6.63,21.67,10.2,24.99-11.99.76-16.83-11.22-16.83-24.48,0-15.05,13-52.79,83.39-52.79,66.3,0,115.01,45.14,158.87,62.48,14.79-16.07,29.83-26.78,44.12-26.78,9.69,0,19.13,2.8,18.11,13.77ZM770.04,407.45c7.39,2.29,14.54,3.57,21.67,3.57,15.81,0,28.56-12.24,28.56-20.4s-7.9-9.95-12.75-9.95c-11.22,0-24.23,10.71-37.49,26.78Z"/><path style="fill:#3c2f2f;" d="M882.24,523.99c-6.12,9.18-21.93,28.56-54.32,28.56-19.64,0-27.8-11.99-27.8-20.15,0-14.79,20.15-40.55,30.86-45.14,6.63-2.8,12.5-.76,10.97,9.44-2.04,14.54-13.77,25.75-24.48,33.92,4.08,8.42,13.51,11.48,23.21,11.48,13.52,0,26.52-5.36,40.04-20.4,1.02-1.28,4.08-1.53,1.53,2.29ZM816.19,527.3c5.1-4.08,12.24-10.71,13.77-20.91.51-4.08-1.02-6.38-4.33-5.35-4.08,1.02-9.44,8.16-10.2,15.81-.51,4.08-.25,7.39.76,10.46ZM845.26,445.19c4.85-5.86,8.16-10.46,11.48-9.43,2.55,1.02,4.59,3.32,5.1,6.38-5.86,9.18-21.42,29.58-30.6,31.88-3.06.25-3.06-2.81-2.29-4.08,5.1-8.67,11.99-19.38,16.32-24.74Z"/></svg>